<?xml version="1.0" encoding="UTF-8"?>
<svg xmlns="http://www.w3.org/2000/svg" xmlns:xlink="http://www.w3.org/1999/xlink" width="252pt" height="177.48pt" viewBox="0 0 252 177.48" version="1.1">
<defs>
<clipPath id="clip1">
  <path d="M 131 159 L 225 159 L 225 177.480469 L 131 177.480469 Z M 131 159 "/>
</clipPath>
</defs>
<g id="surface1">
<path style=" stroke:none;fill-rule:nonzero;fill:rgb(100%,100%,100%);fill-opacity:1;" d="M 132.722656 153.152344 C 90.5 153.152344 56.148438 118.800781 56.148438 76.578125 C 56.148438 34.355469 90.5 0.00390625 132.722656 0.00390625 C 174.945313 0.00390625 209.292969 34.355469 209.292969 76.578125 C 209.292969 118.800781 174.945313 153.152344 132.722656 153.152344 "/>
<path style=" stroke:none;fill-rule:nonzero;fill:rgb(100%,100%,100%);fill-opacity:1;" d="M 239.757813 141.882813 C 238.039063 141.882813 236.414063 141.570313 234.9375 140.960938 C 233.445313 140.347656 232.144531 139.484375 231.0625 138.402344 C 229.972656 137.3125 229.109375 136.007813 228.507813 134.527344 C 227.90625 133.054688 227.601563 131.441406 227.601563 129.730469 C 227.601563 128.039063 227.925781 126.425781 228.566406 124.941406 C 229.191406 123.480469 230.070313 122.183594 231.175781 121.089844 C 232.273438 120 233.578125 119.132813 235.054688 118.515625 C 236.542969 117.890625 238.152344 117.574219 239.847656 117.574219 C 241.554688 117.574219 243.167969 117.875 244.644531 118.472656 C 246.144531 119.082031 247.449219 119.941406 248.539063 121.027344 C 249.632813 122.121094 250.488281 123.425781 251.09375 124.90625 C 251.695313 126.378906 252 127.984375 252 129.683594 C 252 131.371094 251.679688 132.980469 251.042969 134.472656 C 250.410156 135.945313 249.53125 137.25 248.429688 138.34375 C 247.328125 139.433594 246.023438 140.300781 244.546875 140.925781 C 243.050781 141.5625 241.4375 141.882813 239.757813 141.882813 M 95.246094 130.15625 C 95.257813 130.273438 95.269531 130.398438 95.277344 130.53125 C 95.308594 130.484375 95.34375 130.441406 95.375 130.394531 C 95.332031 130.316406 95.285156 130.234375 95.246094 130.15625 M 13.28125 130.980469 L 19.929688 130.980469 C 20.332031 130.980469 20.722656 131.039063 21.097656 131.152344 C 21.085938 131.070313 21.082031 130.988281 21.074219 130.910156 C 21.058594 130.707031 21.050781 130.519531 21.050781 130.34375 C 21.050781 130.070313 21.078125 129.808594 21.128906 129.550781 L 13.28125 129.550781 Z M 73.027344 145.894531 C 73.40625 146.257813 73.714844 146.695313 73.941406 147.199219 C 74.011719 147.359375 74.074219 147.527344 74.128906 147.703125 L 74.128906 144.976563 C 74.105469 144.996094 74.085938 145.023438 74.0625 145.046875 C 73.800781 145.328125 73.460938 145.628906 73.027344 145.894531 M 198.289063 145.894531 C 198.621094 146.210938 198.949219 146.632813 199.203125 147.199219 C 199.273438 147.359375 199.335938 147.527344 199.390625 147.707031 L 199.390625 144.972656 C 199.367188 145 199.347656 145.023438 199.320313 145.046875 C 199.0625 145.328125 198.722656 145.628906 198.289063 145.894531 M 106.527344 149.101563 C 106.21875 149.375 105.953125 149.632813 105.734375 149.878906 C 105.339844 150.308594 105.042969 150.699219 104.835938 151.046875 C 104.695313 151.292969 104.59375 151.523438 104.550781 151.714844 C 104.484375 152.019531 104.449219 152.320313 104.449219 152.636719 C 104.449219 152.929688 104.449219 153.207031 105.28125 153.628906 C 106.164063 154.078125 107.898438 154.609375 111.148438 154.609375 C 112.832031 154.609375 114.214844 154.457031 115.257813 154.160156 C 116.183594 153.894531 116.925781 153.558594 117.40625 153.183594 C 117.785156 152.886719 118.046875 152.585938 118.179688 152.277344 C 118.359375 151.863281 118.445313 151.445313 118.445313 150.996094 C 118.445313 150.523438 118.34375 150.382813 118.023438 150.171875 C 117.300781 149.691406 116.125 149.417969 114.628906 149.378906 Z M 110.828125 166.265625 C 107.675781 166.265625 104.917969 165.984375 102.628906 165.433594 C 100.230469 164.855469 98.195313 164.023438 96.574219 162.96875 C 94.769531 161.789063 93.421875 160.320313 92.578125 158.601563 C 91.765625 156.964844 91.355469 155.171875 91.355469 153.277344 C 91.355469 152.117188 91.496094 150.976563 91.777344 149.886719 C 92.070313 148.765625 92.519531 147.6875 93.113281 146.675781 C 93.589844 145.863281 94.164063 145.085938 94.820313 144.351563 C 94.574219 144.050781 94.351563 143.734375 94.148438 143.410156 C 93.214844 141.898438 92.730469 140.234375 92.714844 138.476563 C 92.222656 138.683594 91.6875 138.792969 91.128906 138.792969 C 90.621094 138.792969 90.101563 138.699219 89.578125 138.515625 C 89.425781 138.464844 89.265625 138.410156 89.085938 138.351563 C 88.972656 138.316406 88.828125 138.277344 88.667969 138.238281 C 88.621094 138.269531 88.546875 138.316406 88.453125 138.394531 C 88.308594 138.507813 88.078125 138.722656 87.75 139.125 C 87.5625 139.355469 87.363281 139.617188 87.15625 139.917969 L 87.15625 153.074219 C 87.15625 153.992188 86.855469 154.855469 86.289063 155.570313 C 85.78125 156.207031 85.101563 156.671875 84.257813 156.964844 C 83.765625 157.132813 83.203125 157.25 82.539063 157.320313 C 82.015625 157.375 81.394531 157.398438 80.640625 157.398438 C 79.886719 157.398438 79.269531 157.375 78.746094 157.320313 C 78.074219 157.25 77.511719 157.132813 77.027344 156.964844 C 76.183594 156.671875 75.503906 156.210938 75.003906 155.585938 C 74.429688 154.867188 74.128906 154 74.128906 153.074219 L 74.128906 152.988281 C 74.03125 153.3125 73.910156 153.621094 73.757813 153.90625 C 73.550781 154.292969 73.296875 154.644531 72.996094 154.96875 C 72.519531 155.476563 71.921875 155.847656 70.929688 156.257813 C 70.285156 156.527344 69.523438 156.769531 68.601563 157.003906 C 67.734375 157.226563 66.761719 157.414063 65.644531 157.582031 C 64.503906 157.746094 63.28125 157.832031 62.007813 157.832031 C 59.640625 157.832031 57.5 157.519531 55.648438 156.898438 C 53.640625 156.222656 51.917969 155.171875 50.535156 153.765625 C 49.15625 152.359375 48.121094 150.597656 47.464844 148.523438 C 47.136719 147.496094 46.898438 146.367188 46.746094 145.160156 L 43.902344 153.726563 C 43.695313 154.402344 43.382813 155 42.980469 155.5 C 42.414063 156.195313 41.640625 156.699219 40.671875 157 C 40.078125 157.179688 39.40625 157.289063 38.550781 157.34375 C 37.902344 157.378906 37.085938 157.398438 36.117188 157.398438 C 35.121094 157.398438 34.320313 157.375 33.671875 157.328125 C 32.835938 157.265625 32.152344 157.144531 31.582031 156.964844 C 30.632813 156.667969 29.867188 156.164063 29.3125 155.472656 C 28.90625 154.972656 28.589844 154.378906 28.382813 153.707031 L 23.800781 139.921875 C 23.773438 140.007813 23.738281 140.09375 23.699219 140.175781 C 23.351563 140.976563 22.835938 141.601563 22.164063 142.042969 C 21.523438 142.472656 20.742188 142.710938 19.929688 142.710938 L 13.28125 142.710938 L 13.28125 145.390625 L 21.839844 145.390625 C 22.695313 145.390625 23.515625 145.65625 24.214844 146.171875 C 24.832031 146.621094 25.308594 147.238281 25.628906 148.003906 C 25.832031 148.488281 25.96875 149.03125 26.046875 149.664063 C 26.109375 150.132813 26.136719 150.675781 26.136719 151.316406 C 26.136719 151.960938 26.109375 152.5 26.046875 152.972656 C 25.964844 153.605469 25.832031 154.148438 25.628906 154.628906 C 25.300781 155.40625 24.820313 156.027344 24.199219 156.476563 C 23.515625 156.976563 22.695313 157.246094 21.839844 157.246094 L 5.292969 157.246094 C 3.9375 157.246094 2.699219 156.796875 1.714844 155.945313 C 0.929688 155.261719 0 153.996094 0 151.828125 L 0 123.113281 C 0 120.941406 0.933594 119.675781 1.714844 118.996094 C 2.695313 118.144531 3.933594 117.695313 5.292969 117.695313 L 21.734375 117.695313 C 22.570313 117.695313 23.371094 117.945313 24.046875 118.421875 C 24.714844 118.902344 25.199219 119.542969 25.519531 120.347656 C 25.710938 120.816406 25.839844 121.347656 25.917969 121.964844 C 25.980469 122.445313 26.011719 122.992188 26.011719 123.648438 C 26.011719 124.265625 25.980469 124.800781 25.917969 125.277344 C 25.882813 125.570313 25.835938 125.84375 25.773438 126.097656 C 26.265625 126.0625 26.839844 126.042969 27.539063 126.042969 C 28.351563 126.042969 29.007813 126.070313 29.539063 126.121094 C 30.203125 126.1875 30.746094 126.289063 31.210938 126.433594 C 32.40625 126.8125 33.089844 127.503906 33.449219 128.015625 C 33.734375 128.414063 33.96875 128.886719 34.140625 129.40625 L 34.152344 129.4375 L 34.160156 129.464844 L 36.300781 136.367188 L 38.386719 129.535156 C 38.550781 128.929688 38.824219 128.378906 39.191406 127.902344 C 39.707031 127.230469 40.417969 126.734375 41.304688 126.445313 C 41.773438 126.296875 42.300781 126.191406 42.933594 126.125 C 43.460938 126.070313 44.085938 126.042969 44.851563 126.042969 C 45.589844 126.042969 46.1875 126.0625 46.671875 126.105469 C 47.410156 126.171875 47.988281 126.292969 48.507813 126.492188 C 49.382813 126.828125 50.058594 127.359375 50.527344 128.0625 C 50.820313 128.496094 51.023438 128.988281 51.128906 129.507813 C 52.332031 128.335938 53.738281 127.410156 55.332031 126.753906 C 57.167969 125.996094 59.226563 125.609375 61.445313 125.609375 C 63.777344 125.609375 65.84375 125.976563 67.589844 126.703125 C 69.40625 127.453125 70.9375 128.535156 72.136719 129.914063 C 72.945313 130.839844 73.613281 131.894531 74.128906 133.050781 L 74.128906 130.367188 C 74.128906 129.546875 74.363281 128.757813 74.808594 128.089844 C 75.28125 127.382813 75.960938 126.855469 76.832031 126.519531 C 77.308594 126.332031 77.847656 126.207031 78.472656 126.128906 C 78.964844 126.070313 79.519531 126.042969 80.183594 126.042969 C 80.859375 126.042969 81.425781 126.070313 81.914063 126.128906 C 82.609375 126.210938 83.183594 126.355469 83.683594 126.574219 C 83.933594 126.683594 84.164063 126.808594 84.378906 126.949219 C 85.109375 126.472656 85.875 126.125 86.65625 125.914063 C 87.417969 125.710938 88.183594 125.609375 88.9375 125.609375 C 89.28125 125.609375 89.640625 125.628906 90 125.667969 C 90.351563 125.703125 90.738281 125.761719 91.132813 125.847656 C 91.597656 125.953125 91.976563 126.0625 92.316406 126.191406 C 92.925781 126.417969 93.417969 126.710938 93.824219 127.082031 C 93.917969 127.167969 94.011719 127.257813 94.097656 127.355469 C 93.710938 125.988281 93.515625 124.441406 93.515625 122.746094 C 93.515625 120.253906 93.957031 117.957031 94.820313 115.925781 C 95.699219 113.867188 96.941406 112.09375 98.515625 110.65625 C 100.066406 109.238281 101.9375 108.144531 104.078125 107.398438 C 106.140625 106.675781 108.398438 106.3125 110.789063 106.3125 C 112.007813 106.3125 113.175781 106.382813 114.261719 106.519531 C 115.183594 106.636719 116.074219 106.792969 116.914063 106.992188 L 127.394531 106.992188 C 129.082031 106.992188 130.5625 107.910156 131.355469 109.445313 C 131.828125 110.375 132.0625 111.527344 132.0625 112.980469 C 132.0625 114.570313 131.785156 115.761719 131.195313 116.726563 C 130.382813 118.050781 129.105469 118.835938 127.65625 118.921875 C 127.925781 120.058594 128.058594 121.234375 128.058594 122.425781 C 128.058594 124.933594 127.640625 127.21875 126.804688 129.21875 C 125.949219 131.273438 124.699219 133.042969 123.09375 134.476563 C 121.550781 135.855469 119.710938 136.921875 117.628906 137.648438 C 119.136719 137.777344 120.582031 138.042969 121.925781 138.4375 C 123.789063 138.988281 125.445313 139.796875 126.847656 140.839844 C 127.640625 141.429688 128.34375 142.09375 128.957031 142.835938 L 128.957031 130.367188 C 128.957031 129.546875 129.191406 128.757813 129.636719 128.089844 C 130.109375 127.382813 130.789063 126.855469 131.660156 126.519531 C 132.136719 126.332031 132.675781 126.207031 133.300781 126.128906 C 133.792969 126.070313 134.347656 126.042969 135.011719 126.042969 C 135.6875 126.042969 136.253906 126.070313 136.742188 126.128906 C 137.4375 126.210938 138.011719 126.355469 138.511719 126.574219 C 138.761719 126.683594 138.992188 126.808594 139.207031 126.949219 C 139.9375 126.472656 140.703125 126.125 141.484375 125.914063 C 142.246094 125.710938 143.011719 125.609375 143.769531 125.609375 C 144.109375 125.609375 144.464844 125.628906 144.824219 125.667969 C 145.179688 125.703125 145.566406 125.761719 145.960938 125.847656 C 146.425781 125.953125 146.804688 126.0625 147.144531 126.191406 C 147.753906 126.417969 148.246094 126.710938 148.652344 127.082031 C 149.101563 127.488281 149.449219 127.976563 149.679688 128.523438 C 149.816406 128.847656 149.914063 129.195313 149.992188 129.605469 C 149.996094 129.621094 150 129.636719 150.003906 129.652344 C 151.234375 128.410156 152.695313 127.4375 154.351563 126.753906 C 156.1875 125.996094 158.242188 125.609375 160.46875 125.609375 C 162.796875 125.609375 164.863281 125.976563 166.609375 126.703125 C 168.421875 127.453125 169.953125 128.535156 171.152344 129.910156 C 172.132813 131.03125 172.898438 132.328125 173.441406 133.769531 C 174.046875 132.433594 174.8125 131.238281 175.734375 130.199219 C 177.066406 128.695313 178.703125 127.535156 180.597656 126.753906 C 182.429688 125.996094 184.488281 125.609375 186.710938 125.609375 C 189.039063 125.609375 191.105469 125.976563 192.855469 126.703125 C 194.667969 127.457031 196.199219 128.535156 197.402344 129.914063 C 198.210938 130.84375 198.878906 131.894531 199.390625 133.050781 L 199.390625 130.367188 C 199.390625 129.546875 199.628906 128.757813 200.074219 128.089844 C 200.53125 127.390625 201.21875 126.855469 202.097656 126.519531 C 202.570313 126.332031 203.109375 126.207031 203.734375 126.128906 C 204.226563 126.070313 204.78125 126.042969 205.445313 126.042969 C 206.121094 126.042969 206.691406 126.070313 207.175781 126.128906 C 207.867188 126.210938 208.441406 126.355469 208.941406 126.570313 C 209.351563 126.75 209.71875 126.976563 210.035156 127.242188 C 210.179688 127.160156 210.324219 127.082031 210.46875 127.003906 C 212.242188 126.078125 214.125 125.609375 216.0625 125.609375 C 218.097656 125.609375 219.894531 125.976563 221.398438 126.699219 C 222.941406 127.4375 224.214844 128.472656 225.1875 129.773438 C 226.105469 131.003906 226.769531 132.433594 227.164063 134.027344 C 227.519531 135.480469 227.691406 137.121094 227.691406 139.050781 L 227.691406 153.074219 C 227.691406 154 227.390625 154.867188 226.816406 155.585938 C 226.335938 156.191406 225.667969 156.65625 224.835938 156.953125 C 224.34375 157.128906 223.769531 157.25 223.078125 157.320313 C 222.550781 157.375 221.9375 157.398438 221.203125 157.398438 C 220.453125 157.398438 219.828125 157.375 219.300781 157.320313 C 218.609375 157.25 218.035156 157.128906 217.539063 156.949219 C 216.722656 156.65625 216.058594 156.199219 215.566406 155.585938 C 214.992188 154.867188 214.691406 154 214.691406 153.074219 L 214.691406 140.117188 C 214.691406 139 214.59375 138.507813 214.550781 138.34375 C 214.480469 138.066406 214.402344 137.898438 214.347656 137.808594 C 214.316406 137.804688 214.261719 137.796875 214.179688 137.796875 C 214.132813 137.796875 213.945313 137.847656 213.632813 138.074219 C 213.351563 138.273438 212.945313 138.613281 212.417969 139.1875 L 212.417969 153.074219 C 212.417969 154 212.117188 154.867188 211.542969 155.585938 C 211.042969 156.210938 210.359375 156.671875 209.515625 156.964844 C 209.03125 157.132813 208.472656 157.25 207.800781 157.320313 C 207.277344 157.375 206.65625 157.398438 205.902344 157.398438 C 205.152344 157.398438 204.53125 157.375 204.007813 157.320313 C 203.339844 157.25 202.777344 157.132813 202.289063 156.964844 C 201.445313 156.671875 200.765625 156.207031 200.265625 155.585938 C 199.691406 154.871094 199.390625 154 199.390625 153.074219 L 199.390625 152.984375 C 199.296875 153.3125 199.175781 153.621094 199.023438 153.90625 C 198.8125 154.292969 198.558594 154.644531 198.261719 154.96875 C 197.78125 155.476563 197.1875 155.847656 196.191406 156.257813 C 195.550781 156.523438 194.785156 156.769531 193.867188 157.003906 C 192.992188 157.226563 192.027344 157.414063 190.910156 157.582031 C 189.769531 157.746094 188.542969 157.832031 187.269531 157.832031 C 184.90625 157.832031 182.765625 157.519531 180.910156 156.898438 C 178.902344 156.222656 177.183594 155.171875 175.800781 153.765625 C 174.835938 152.78125 174.039063 151.625 173.421875 150.308594 C 173.421875 150.738281 173.40625 151.109375 173.390625 151.417969 C 173.367188 151.777344 173.324219 152.128906 173.269531 152.453125 C 173.167969 152.996094 173.007813 153.46875 172.789063 153.882813 C 172.574219 154.285156 172.324219 154.632813 172.027344 154.957031 C 171.535156 155.476563 170.941406 155.847656 169.949219 156.257813 C 169.308594 156.523438 168.542969 156.769531 167.621094 157.003906 C 166.746094 157.226563 165.777344 157.417969 164.664063 157.582031 C 163.523438 157.746094 162.296875 157.832031 161.027344 157.832031 C 158.660156 157.832031 156.519531 157.519531 154.667969 156.898438 C 152.660156 156.222656 150.941406 155.171875 149.558594 153.765625 C 148.175781 152.359375 147.140625 150.597656 146.484375 148.523438 C 145.882813 146.636719 145.578125 144.433594 145.578125 141.976563 C 145.578125 140.871094 145.648438 139.808594 145.785156 138.789063 C 145.332031 138.769531 144.871094 138.679688 144.40625 138.515625 C 144.257813 138.464844 144.09375 138.410156 143.914063 138.351563 C 143.800781 138.316406 143.65625 138.277344 143.496094 138.238281 C 143.449219 138.269531 143.378906 138.316406 143.277344 138.398438 C 143.140625 138.507813 142.90625 138.722656 142.574219 139.128906 C 142.390625 139.355469 142.191406 139.621094 141.984375 139.917969 L 141.984375 153.074219 C 141.984375 154 141.679688 154.867188 141.105469 155.585938 C 140.621094 156.199219 139.9375 156.667969 139.085938 156.964844 C 138.59375 157.132813 138.03125 157.25 137.363281 157.320313 C 136.84375 157.375 136.222656 157.398438 135.46875 157.398438 C 134.714844 157.398438 134.097656 157.375 133.574219 157.320313 C 132.90625 157.25 132.34375 157.132813 131.855469 156.964844 C 131.355469 156.789063 130.910156 156.558594 130.527344 156.265625 C 130.460938 156.425781 130.386719 156.589844 130.3125 156.75 C 129.402344 158.707031 128.019531 160.4375 126.1875 161.886719 C 124.4375 163.277344 122.222656 164.378906 119.609375 165.152344 C 117.097656 165.890625 114.144531 166.265625 110.828125 166.265625 "/>
<path style=" stroke:none;fill-rule:nonzero;fill:rgb(61.999512%,85.899353%,92.498779%);fill-opacity:1;" d="M 199.335938 55.148438 C 197.074219 57.191406 194.164063 58.910156 190.554688 59.390625 C 181.519531 60.59375 172.195313 50.039063 172.195313 50.039063 C 172.195313 50.039063 165.988281 55.371094 159.609375 53.972656 C 153.226563 52.574219 151.390625 46.976563 151.390625 46.976563 C 151.390625 46.976563 144.492188 49.480469 130.675781 49.949219 C 112.667969 50.5625 106.289063 46.277344 105.5 42.519531 C 104.714844 38.761719 113.28125 36.140625 124.820313 35.527344 C 136.355469 34.914063 140.117188 37.015625 140.117188 37.015625 C 135.921875 25.5625 141.210938 18.265625 148.945313 19.007813 C 167.15625 20.753906 174.554688 35.441406 174.554688 35.441406 C 176.3125 32.253906 175.519531 27.097656 177.3125 22.667969 C 165.203125 12.644531 149.667969 6.617188 132.722656 6.617188 C 94.882813 6.617188 64.0625 36.660156 62.804688 74.195313 C 68.8125 74.898438 70.65625 77.238281 70.65625 77.238281 C 70.65625 77.238281 67.390625 67.324219 76.625 63.003906 C 92.167969 55.726563 126.554688 94.929688 121.738281 99.746094 C 116.925781 104.5625 105.820313 98.621094 95.046875 99.011719 C 80.601563 99.535156 76.414063 92.628906 76.414063 92.628906 C 73.074219 94.042969 69.226563 94.710938 65.191406 94.902344 C 68.515625 107.167969 75.085938 118.097656 83.929688 126.707031 C 84.082031 126.785156 84.238281 126.855469 84.378906 126.949219 C 85.109375 126.472656 85.875 126.125 86.65625 125.914063 C 87.417969 125.710938 88.183594 125.609375 88.9375 125.609375 C 89.28125 125.609375 89.640625 125.628906 90 125.667969 C 90.351563 125.703125 90.738281 125.761719 91.132813 125.847656 C 91.597656 125.953125 91.976563 126.0625 92.316406 126.191406 C 92.925781 126.417969 93.417969 126.710938 93.824219 127.082031 C 93.917969 127.167969 94.011719 127.257813 94.097656 127.355469 C 93.710938 125.988281 93.515625 124.441406 93.515625 122.746094 C 93.515625 120.253906 93.957031 117.957031 94.820313 115.925781 C 95.699219 113.867188 96.941406 112.09375 98.515625 110.660156 C 100.066406 109.242188 101.9375 108.144531 104.078125 107.398438 C 106.140625 106.675781 108.398438 106.3125 110.789063 106.3125 C 112.007813 106.3125 113.175781 106.382813 114.261719 106.519531 C 115.183594 106.636719 116.074219 106.792969 116.914063 106.992188 L 127.394531 106.992188 C 129.082031 106.992188 130.5625 107.910156 131.355469 109.445313 C 131.828125 110.375 132.0625 111.53125 132.0625 112.980469 C 132.0625 114.570313 131.785156 115.761719 131.195313 116.726563 C 130.382813 118.050781 129.105469 118.835938 127.65625 118.921875 C 127.925781 120.058594 128.058594 121.234375 128.058594 122.421875 C 128.058594 124.933594 127.640625 127.21875 126.804688 129.21875 C 125.949219 131.273438 124.699219 133.042969 123.09375 134.476563 C 121.550781 135.855469 119.710938 136.921875 117.628906 137.648438 C 119.136719 137.777344 120.582031 138.042969 121.925781 138.4375 C 123.789063 138.988281 125.445313 139.796875 126.847656 140.839844 C 127.640625 141.429688 128.34375 142.09375 128.957031 142.835938 L 128.957031 130.367188 C 128.957031 129.546875 129.191406 128.757813 129.636719 128.085938 C 130.109375 127.378906 130.789063 126.855469 131.660156 126.519531 C 132.136719 126.332031 132.675781 126.207031 133.300781 126.128906 C 133.792969 126.070313 134.347656 126.042969 135.011719 126.042969 C 135.6875 126.042969 136.253906 126.070313 136.742188 126.128906 C 137.4375 126.210938 138.011719 126.355469 138.511719 126.574219 C 138.761719 126.683594 138.992188 126.808594 139.207031 126.949219 C 139.9375 126.472656 140.703125 126.125 141.484375 125.914063 C 142.246094 125.710938 143.011719 125.609375 143.769531 125.609375 C 144.109375 125.609375 144.464844 125.628906 144.824219 125.667969 C 145.179688 125.703125 145.566406 125.761719 145.960938 125.847656 C 146.425781 125.953125 146.804688 126.0625 147.144531 126.191406 C 147.753906 126.417969 148.246094 126.710938 148.652344 127.082031 C 149.101563 127.492188 149.449219 127.976563 149.679688 128.523438 C 149.8125 128.847656 149.914063 129.199219 149.992188 129.605469 C 149.996094 129.621094 150 129.636719 150.003906 129.652344 C 151.234375 128.410156 152.695313 127.4375 154.351563 126.753906 C 156.1875 125.996094 158.242188 125.609375 160.46875 125.609375 C 162.796875 125.609375 164.863281 125.976563 166.609375 126.703125 C 168.421875 127.453125 169.953125 128.535156 171.152344 129.910156 C 172.078125 130.972656 172.808594 132.191406 173.34375 133.539063 C 173.453125 133.460938 173.5625 133.378906 173.671875 133.296875 C 174.238281 132.152344 174.925781 131.113281 175.734375 130.199219 C 177.066406 128.695313 178.703125 127.535156 180.597656 126.753906 C 181.035156 126.570313 181.492188 126.410156 181.960938 126.273438 C 194.753906 113.59375 202.683594 96.011719 202.683594 76.578125 C 202.683594 69.101563 201.503906 61.902344 199.335938 55.148438 M 95.277344 130.53125 C 95.308594 130.488281 95.34375 130.441406 95.375 130.394531 C 95.332031 130.316406 95.285156 130.234375 95.246094 130.15625 C 95.257813 130.273438 95.269531 130.398438 95.277344 130.53125 "/>
<path style=" stroke:none;fill-rule:nonzero;fill:rgb(13.299561%,11.799622%,12.199402%);fill-opacity:1;" d="M 100.753906 83.765625 C 100.867188 84.574219 100.933594 85.566406 101 86.617188 C 101.363281 92.175781 101.929688 100.902344 111.671875 103.460938 L 111.800781 109.648438 C 112.300781 109.667969 112.785156 109.699219 113.25 109.746094 L 113.125 103.777344 C 114.5625 104.042969 116.164063 104.191406 117.976563 104.191406 C 118.1875 104.191406 118.394531 104.183594 118.601563 104.179688 L 118.730469 110.300781 L 120.179688 110.300781 L 120.046875 104.101563 C 130.359375 103.195313 136.480469 95.589844 138.8125 88.4375 C 139.824219 85.339844 141.011719 77.761719 141.011719 75.738281 C 141.011719 74.136719 139.90625 73.707031 139.25 73.707031 C 138.765625 73.707031 138.359375 73.890625 137.972656 74.070313 C 135.402344 75.246094 132.664063 76.300781 127.4375 76.300781 C 120.015625 76.300781 116.695313 73.308594 113.765625 70.667969 C 111.480469 68.609375 109.324219 66.667969 105.851563 66.667969 C 99.839844 66.667969 97.15625 71.234375 96.015625 73.183594 C 95.886719 73.398438 95.734375 73.664063 95.664063 73.757813 C 95.015625 74.402344 94.4375 74.863281 94.433594 74.867188 L 92.183594 76.664063 L 94.96875 77.402344 C 95.175781 77.457031 100.042969 78.800781 100.753906 83.765625 "/>
<path style=" stroke:none;fill-rule:nonzero;fill:rgb(0%,44.299316%,73.298645%);fill-opacity:1;" d="M 102.675781 74.507813 C 102.160156 74.507813 101.71875 73.9375 101.683594 73.238281 C 101.652344 72.535156 102.042969 71.96875 102.558594 71.96875 C 103.070313 71.96875 103.515625 72.535156 103.550781 73.238281 C 103.582031 73.9375 103.191406 74.507813 102.675781 74.507813 M 138.574219 75.386719 C 136.128906 76.503906 133.121094 77.75 127.4375 77.75 C 113.753906 77.75 112.851563 68.113281 105.851563 68.113281 C 99.53125 68.113281 97.457031 74.011719 96.71875 74.746094 C 95.984375 75.484375 95.332031 76 95.332031 76 C 95.332031 76 101.324219 77.53125 102.183594 83.5625 C 103.046875 89.589844 101.085938 102.746094 117.972656 102.746094 C 128.53125 102.746094 135 95.457031 137.4375 87.988281 C 138.40625 85.019531 139.566406 77.605469 139.566406 75.738281 C 139.566406 74.9375 139.183594 75.105469 138.574219 75.386719 "/>
<g clip-path="url(#clip1)" clip-rule="nonzero">
<path style=" stroke:none;fill-rule:nonzero;fill:rgb(95.698547%,47.099304%,12.199402%);fill-opacity:1;" d="M 224.664063 175.011719 C 224.640625 174.824219 224.609375 174.679688 224.5625 174.566406 C 224.519531 174.453125 224.464844 174.375 224.394531 174.324219 C 224.328125 174.273438 224.25 174.25 224.160156 174.25 L 218.683594 174.25 L 218.683594 160.238281 C 218.683594 160.148438 218.652344 160.066406 218.59375 159.996094 C 218.535156 159.921875 218.4375 159.863281 218.304688 159.820313 C 218.171875 159.773438 217.988281 159.738281 217.765625 159.710938 C 217.539063 159.6875 217.253906 159.671875 216.902344 159.671875 C 216.5625 159.671875 216.277344 159.6875 216.050781 159.710938 C 215.820313 159.738281 215.640625 159.773438 215.503906 159.820313 C 215.371094 159.863281 215.273438 159.921875 215.214844 159.996094 C 215.15625 160.066406 215.128906 160.148438 215.128906 160.238281 L 215.128906 176.054688 C 215.128906 176.449219 215.226563 176.734375 215.429688 176.90625 C 215.632813 177.082031 215.882813 177.171875 216.179688 177.171875 L 224.160156 177.171875 C 224.25 177.171875 224.328125 177.144531 224.394531 177.089844 C 224.464844 177.035156 224.519531 176.949219 224.5625 176.828125 C 224.609375 176.707031 224.640625 176.554688 224.664063 176.371094 C 224.6875 176.1875 224.699219 175.957031 224.699219 175.691406 C 224.699219 175.421875 224.6875 175.195313 224.664063 175.011719 M 208.214844 170.808594 C 208.066406 171.550781 207.8125 172.199219 207.453125 172.753906 C 207.097656 173.3125 206.625 173.75 206.042969 174.074219 C 205.457031 174.398438 204.730469 174.558594 203.859375 174.558594 C 202.992188 174.558594 202.269531 174.417969 201.695313 174.136719 C 201.121094 173.851563 200.660156 173.441406 200.320313 172.902344 C 199.980469 172.363281 199.738281 171.714844 199.59375 170.957031 C 199.449219 170.199219 199.378906 169.34375 199.378906 168.394531 C 199.378906 167.578125 199.453125 166.804688 199.601563 166.070313 C 199.75 165.339844 200.003906 164.703125 200.359375 164.152344 C 200.722656 163.605469 201.191406 163.167969 201.773438 162.84375 C 202.359375 162.515625 203.085938 162.351563 203.957031 162.351563 C 204.816406 162.351563 205.535156 162.496094 206.109375 162.789063 C 206.683594 163.078125 207.144531 163.492188 207.488281 164.027344 C 207.835938 164.5625 208.078125 165.203125 208.222656 165.949219 C 208.367188 166.699219 208.4375 167.53125 208.4375 168.449219 C 208.4375 169.28125 208.363281 170.070313 208.214844 170.808594 M 210.101563 161.582031 C 209.421875 160.855469 208.578125 160.316406 207.570313 159.96875 C 206.558594 159.617188 205.394531 159.445313 204.078125 159.445313 C 202.695313 159.445313 201.480469 159.652344 200.433594 160.074219 C 199.390625 160.496094 198.515625 161.105469 197.804688 161.894531 C 197.097656 162.683594 196.5625 163.640625 196.203125 164.765625 C 195.84375 165.894531 195.664063 167.160156 195.664063 168.570313 C 195.664063 170.105469 195.832031 171.433594 196.167969 172.554688 C 196.507813 173.675781 197.011719 174.597656 197.683594 175.328125 C 198.355469 176.054688 199.195313 176.59375 200.207031 176.949219 C 201.214844 177.300781 202.398438 177.480469 203.753906 177.480469 C 205.125 177.480469 206.335938 177.269531 207.382813 176.855469 C 208.425781 176.4375 209.304688 175.832031 210.011719 175.035156 C 210.722656 174.242188 211.253906 173.277344 211.613281 172.136719 C 211.972656 170.996094 212.152344 169.703125 212.152344 168.257813 C 212.152344 166.753906 211.980469 165.445313 211.636719 164.335938 C 211.289063 163.226563 210.777344 162.308594 210.101563 161.582031 M 189.574219 170.808594 C 189.425781 171.550781 189.171875 172.199219 188.8125 172.753906 C 188.453125 173.3125 187.984375 173.75 187.398438 174.074219 C 186.816406 174.398438 186.089844 174.558594 185.21875 174.558594 C 184.347656 174.558594 183.628906 174.417969 183.054688 174.136719 C 182.476563 173.851563 182.019531 173.441406 181.679688 172.902344 C 181.339844 172.363281 181.097656 171.714844 180.953125 170.957031 C 180.808594 170.199219 180.738281 169.34375 180.738281 168.394531 C 180.738281 167.578125 180.808594 166.804688 180.960938 166.070313 C 181.105469 165.339844 181.359375 164.703125 181.71875 164.152344 C 182.078125 163.605469 182.550781 163.167969 183.132813 162.84375 C 183.71875 162.515625 184.441406 162.351563 185.3125 162.351563 C 186.175781 162.351563 186.894531 162.496094 187.46875 162.789063 C 188.039063 163.078125 188.5 163.492188 188.847656 164.027344 C 189.191406 164.5625 189.4375 165.203125 189.578125 165.949219 C 189.726563 166.699219 189.796875 167.53125 189.796875 168.449219 C 189.796875 169.28125 189.722656 170.070313 189.574219 170.808594 M 191.457031 161.582031 C 190.78125 160.855469 189.9375 160.316406 188.929688 159.96875 C 187.917969 159.617188 186.753906 159.445313 185.433594 159.445313 C 184.054688 159.445313 182.839844 159.652344 181.792969 160.074219 C 180.746094 160.496094 179.871094 161.105469 179.164063 161.894531 C 178.453125 162.683594 177.921875 163.640625 177.558594 164.765625 C 177.203125 165.894531 177.023438 167.160156 177.023438 168.570313 C 177.023438 170.105469 177.191406 171.433594 177.527344 172.554688 C 177.863281 173.675781 178.367188 174.597656 179.042969 175.328125 C 179.714844 176.054688 180.554688 176.59375 181.566406 176.949219 C 182.574219 177.300781 183.757813 177.480469 185.113281 177.480469 C 186.484375 177.480469 187.695313 177.269531 188.738281 176.855469 C 189.785156 176.4375 190.660156 175.832031 191.371094 175.035156 C 192.078125 174.242188 192.613281 173.277344 192.972656 172.136719 C 193.332031 170.996094 193.511719 169.703125 193.511719 168.257813 C 193.511719 166.753906 193.339844 165.445313 192.992188 164.335938 C 192.644531 163.226563 192.136719 162.308594 191.457031 161.582031 M 173.671875 159.820313 C 173.535156 159.773438 173.355469 159.738281 173.132813 159.710938 C 172.90625 159.6875 172.625 159.671875 172.285156 159.671875 C 171.933594 159.671875 171.644531 159.6875 171.414063 159.710938 C 171.1875 159.738281 171.007813 159.773438 170.878906 159.820313 C 170.746094 159.863281 170.652344 159.921875 170.59375 159.996094 C 170.535156 160.066406 170.507813 160.148438 170.507813 160.238281 L 170.507813 166.632813 L 163.992188 166.632813 L 163.992188 160.238281 C 163.992188 160.148438 163.964844 160.066406 163.910156 159.996094 C 163.859375 159.921875 163.765625 159.863281 163.628906 159.820313 C 163.496094 159.773438 163.316406 159.738281 163.089844 159.710938 C 162.867188 159.6875 162.578125 159.671875 162.230469 159.671875 C 161.890625 159.671875 161.601563 159.6875 161.375 159.710938 C 161.144531 159.738281 160.964844 159.773438 160.828125 159.820313 C 160.695313 159.863281 160.597656 159.921875 160.539063 159.996094 C 160.480469 160.066406 160.453125 160.148438 160.453125 160.238281 L 160.453125 176.6875 C 160.453125 176.777344 160.480469 176.855469 160.539063 176.929688 C 160.597656 177 160.695313 177.058594 160.828125 177.101563 C 160.964844 177.148438 161.144531 177.183594 161.375 177.210938 C 161.601563 177.238281 161.890625 177.25 162.230469 177.25 C 162.578125 177.25 162.867188 177.238281 163.089844 177.210938 C 163.316406 177.183594 163.496094 177.148438 163.628906 177.101563 C 163.765625 177.058594 163.859375 177 163.910156 176.929688 C 163.964844 176.855469 163.992188 176.777344 163.992188 176.6875 L 163.992188 169.644531 L 170.507813 169.644531 L 170.507813 176.6875 C 170.507813 176.777344 170.535156 176.855469 170.59375 176.929688 C 170.652344 177 170.746094 177.058594 170.878906 177.101563 C 171.007813 177.148438 171.1875 177.183594 171.414063 177.210938 C 171.644531 177.238281 171.933594 177.25 172.285156 177.25 C 172.625 177.25 172.90625 177.238281 173.132813 177.210938 C 173.355469 177.183594 173.535156 177.148438 173.671875 177.101563 C 173.804688 177.058594 173.902344 177 173.960938 176.929688 C 174.019531 176.855469 174.046875 176.777344 174.046875 176.6875 L 174.046875 160.238281 C 174.046875 160.148438 174.019531 160.066406 173.960938 159.996094 C 173.902344 159.921875 173.804688 159.863281 173.671875 159.820313 M 157.800781 173.308594 C 157.765625 173.199219 157.722656 173.128906 157.667969 173.09375 C 157.613281 173.054688 157.539063 173.039063 157.449219 173.039063 C 157.335938 173.039063 157.171875 173.109375 156.960938 173.253906 C 156.75 173.398438 156.480469 173.558594 156.152344 173.738281 C 155.824219 173.917969 155.433594 174.082031 154.976563 174.230469 C 154.519531 174.378906 153.976563 174.453125 153.347656 174.453125 C 152.65625 174.453125 152.035156 174.332031 151.480469 174.09375 C 150.929688 173.855469 150.460938 173.496094 150.066406 173.011719 C 149.679688 172.527344 149.378906 171.910156 149.167969 171.160156 C 148.957031 170.410156 148.851563 169.523438 148.851563 168.503906 C 148.851563 167.570313 148.949219 166.730469 149.144531 165.984375 C 149.34375 165.238281 149.632813 164.605469 150.015625 164.082031 C 150.394531 163.554688 150.859375 163.152344 151.402344 162.867188 C 151.945313 162.585938 152.558594 162.445313 153.253906 162.445313 C 153.878906 162.445313 154.421875 162.523438 154.875 162.679688 C 155.328125 162.835938 155.71875 163.011719 156.046875 163.207031 C 156.371094 163.398438 156.640625 163.574219 156.847656 163.730469 C 157.054688 163.886719 157.222656 163.964844 157.355469 163.964844 C 157.4375 163.964844 157.511719 163.9375 157.570313 163.886719 C 157.636719 163.832031 157.6875 163.746094 157.734375 163.628906 C 157.777344 163.511719 157.808594 163.359375 157.828125 163.171875 C 157.847656 162.984375 157.855469 162.753906 157.855469 162.484375 C 157.855469 162.234375 157.847656 162.023438 157.835938 161.851563 C 157.820313 161.683594 157.800781 161.535156 157.773438 161.40625 C 157.746094 161.28125 157.710938 161.179688 157.667969 161.097656 C 157.621094 161.019531 157.539063 160.917969 157.417969 160.796875 C 157.296875 160.675781 157.082031 160.53125 156.777344 160.359375 C 156.472656 160.1875 156.128906 160.039063 155.75 159.90625 C 155.367188 159.777344 154.953125 159.671875 154.503906 159.589844 C 154.054688 159.511719 153.589844 159.46875 153.105469 159.46875 C 151.910156 159.46875 150.816406 159.671875 149.824219 160.074219 C 148.835938 160.480469 147.984375 161.070313 147.277344 161.851563 C 146.566406 162.632813 146.015625 163.597656 145.621094 164.746094 C 145.226563 165.894531 145.027344 167.210938 145.027344 168.691406 C 145.027344 170.144531 145.207031 171.417969 145.566406 172.511719 C 145.925781 173.609375 146.441406 174.519531 147.113281 175.253906 C 147.785156 175.984375 148.601563 176.53125 149.5625 176.902344 C 150.523438 177.269531 151.601563 177.453125 152.792969 177.453125 C 153.402344 177.453125 153.972656 177.402344 154.496094 177.304688 C 155.023438 177.207031 155.488281 177.082031 155.894531 176.933594 C 156.304688 176.785156 156.648438 176.632813 156.933594 176.46875 C 157.214844 176.308594 157.40625 176.175781 157.507813 176.074219 C 157.605469 175.96875 157.675781 175.878906 157.722656 175.796875 C 157.765625 175.714844 157.800781 175.621094 157.828125 175.507813 C 157.855469 175.394531 157.875 175.261719 157.890625 175.105469 C 157.902344 174.945313 157.910156 174.757813 157.910156 174.53125 C 157.910156 174.207031 157.898438 173.953125 157.882813 173.757813 C 157.863281 173.566406 157.839844 173.414063 157.800781 173.308594 M 141.984375 168.777344 C 141.636719 168.398438 141.234375 168.070313 140.789063 167.796875 C 140.339844 167.523438 139.882813 167.277344 139.414063 167.0625 C 138.949219 166.847656 138.488281 166.640625 138.042969 166.449219 C 137.59375 166.257813 137.191406 166.050781 136.835938 165.828125 C 136.484375 165.609375 136.199219 165.359375 135.988281 165.078125 C 135.777344 164.792969 135.671875 164.460938 135.671875 164.074219 C 135.671875 163.8125 135.71875 163.566406 135.8125 163.332031 C 135.910156 163.101563 136.050781 162.902344 136.246094 162.734375 C 136.4375 162.570313 136.679688 162.4375 136.964844 162.34375 C 137.253906 162.25 137.589844 162.203125 137.976563 162.203125 C 138.46875 162.203125 138.921875 162.261719 139.335938 162.382813 C 139.746094 162.503906 140.109375 162.640625 140.425781 162.789063 C 140.738281 162.9375 141.003906 163.070313 141.21875 163.199219 C 141.433594 163.324219 141.589844 163.386719 141.6875 163.386719 C 141.789063 163.386719 141.867188 163.359375 141.925781 163.304688 C 141.984375 163.253906 142.027344 163.167969 142.058594 163.050781 C 142.09375 162.933594 142.113281 162.785156 142.128906 162.605469 C 142.140625 162.425781 142.148438 162.207031 142.148438 161.945313 C 142.148438 161.714844 142.144531 161.519531 142.132813 161.363281 C 142.125 161.203125 142.109375 161.074219 142.085938 160.972656 C 142.0625 160.867188 142.035156 160.785156 142.007813 160.722656 C 141.976563 160.660156 141.914063 160.582031 141.824219 160.492188 C 141.734375 160.402344 141.550781 160.292969 141.273438 160.15625 C 140.992188 160.023438 140.675781 159.902344 140.316406 159.792969 C 139.957031 159.6875 139.570313 159.601563 139.160156 159.539063 C 138.746094 159.476563 138.335938 159.445313 137.921875 159.445313 C 137.121094 159.445313 136.367188 159.546875 135.652344 159.753906 C 134.9375 159.960938 134.320313 160.269531 133.796875 160.6875 C 133.269531 161.105469 132.851563 161.628906 132.542969 162.261719 C 132.234375 162.894531 132.078125 163.628906 132.078125 164.464844 C 132.078125 165.191406 132.1875 165.8125 132.402344 166.335938 C 132.617188 166.855469 132.898438 167.304688 133.242188 167.6875 C 133.589844 168.070313 133.980469 168.398438 134.421875 168.671875 C 134.859375 168.945313 135.3125 169.1875 135.78125 169.402344 C 136.246094 169.617188 136.699219 169.820313 137.140625 170.015625 C 137.578125 170.210938 137.972656 170.414063 138.316406 170.636719 C 138.664063 170.855469 138.941406 171.105469 139.160156 171.390625 C 139.375 171.671875 139.480469 172.011719 139.480469 172.40625 C 139.480469 172.746094 139.417969 173.054688 139.292969 173.335938 C 139.167969 173.613281 138.984375 173.84375 138.75 174.03125 C 138.511719 174.222656 138.222656 174.367188 137.882813 174.472656 C 137.539063 174.574219 137.152344 174.625 136.722656 174.625 C 136.066406 174.625 135.492188 174.550781 134.992188 174.40625 C 134.496094 174.257813 134.066406 174.09375 133.707031 173.914063 C 133.347656 173.734375 133.054688 173.570313 132.824219 173.421875 C 132.597656 173.273438 132.421875 173.199219 132.296875 173.199219 C 132.203125 173.199219 132.128906 173.222656 132.058594 173.273438 C 131.992188 173.320313 131.9375 173.40625 131.898438 173.523438 C 131.855469 173.640625 131.828125 173.792969 131.808594 173.980469 C 131.792969 174.167969 131.78125 174.402344 131.78125 174.679688 C 131.78125 175.09375 131.808594 175.410156 131.855469 175.628906 C 131.90625 175.847656 131.988281 176.015625 132.105469 176.132813 C 132.222656 176.25 132.414063 176.386719 132.679688 176.539063 C 132.941406 176.691406 133.273438 176.835938 133.667969 176.976563 C 134.0625 177.113281 134.519531 177.234375 135.03125 177.332031 C 135.550781 177.429688 136.109375 177.480469 136.710938 177.480469 C 137.597656 177.480469 138.433594 177.363281 139.214844 177.128906 C 139.992188 176.898438 140.675781 176.550781 141.257813 176.085938 C 141.84375 175.625 142.304688 175.046875 142.644531 174.355469 C 142.984375 173.667969 143.15625 172.863281 143.15625 171.945313 C 143.15625 171.246094 143.050781 170.640625 142.835938 170.125 C 142.617188 169.609375 142.335938 169.160156 141.984375 168.777344 "/>
</g>
<path style=" stroke:none;fill-rule:nonzero;fill:rgb(21.598816%,70.599365%,28.599548%);fill-opacity:1;" d="M 246.15625 132.515625 C 245.832031 133.355469 245.367188 134.089844 244.769531 134.71875 C 244.171875 135.347656 243.445313 135.851563 242.597656 136.222656 C 241.75 136.59375 240.800781 136.777344 239.757813 136.777344 C 238.785156 136.777344 237.882813 136.609375 237.050781 136.265625 C 236.214844 135.925781 235.496094 135.441406 234.886719 134.8125 C 234.28125 134.183594 233.808594 133.425781 233.46875 132.546875 C 233.125 131.667969 232.953125 130.699219 232.953125 129.636719 C 232.953125 128.683594 233.117188 127.785156 233.445313 126.941406 C 233.769531 126.101563 234.234375 125.363281 234.84375 124.726563 C 235.449219 124.085938 236.175781 123.585938 237.015625 123.222656 C 237.855469 122.859375 238.800781 122.675781 239.847656 122.675781 C 240.816406 122.675781 241.71875 122.84375 242.554688 123.179688 C 243.386719 123.511719 244.105469 123.992188 244.714844 124.621094 C 245.320313 125.25 245.792969 126.003906 246.136719 126.886719 C 246.476563 127.765625 246.644531 128.742188 246.644531 129.820313 C 246.644531 130.773438 246.484375 131.671875 246.15625 132.515625 M 248.035156 126.15625 C 247.59375 125.082031 246.984375 124.152344 246.203125 123.371094 C 245.421875 122.589844 244.488281 121.980469 243.40625 121.539063 C 242.320313 121.101563 241.136719 120.878906 239.847656 120.878906 C 238.589844 120.878906 237.417969 121.109375 236.332031 121.5625 C 235.25 122.019531 234.304688 122.644531 233.5 123.441406 C 232.695313 124.234375 232.0625 125.171875 231.601563 126.25 C 231.140625 127.324219 230.90625 128.484375 230.90625 129.726563 C 230.90625 131.015625 231.128906 132.199219 231.566406 133.277344 C 232.007813 134.351563 232.617188 135.28125 233.398438 136.0625 C 234.179688 136.84375 235.113281 137.457031 236.195313 137.90625 C 237.28125 138.351563 238.46875 138.574219 239.757813 138.574219 C 241 138.574219 242.164063 138.34375 243.257813 137.882813 C 244.347656 137.417969 245.296875 136.789063 246.101563 135.992188 C 246.902344 135.199219 247.535156 134.257813 248 133.171875 C 248.464844 132.089844 248.691406 130.925781 248.691406 129.683594 C 248.691406 128.410156 248.472656 127.234375 248.035156 126.15625 M 240.777344 128.636719 C 240.535156 128.878906 240.097656 129 239.460938 129 L 238.460938 129 L 238.460938 126.453125 L 239.507813 126.453125 C 239.824219 126.453125 240.089844 126.484375 240.300781 126.542969 C 240.511719 126.605469 240.683594 126.691406 240.8125 126.804688 C 240.941406 126.917969 241.027344 127.050781 241.074219 127.203125 C 241.121094 127.355469 241.140625 127.515625 241.140625 127.679688 C 241.140625 128.074219 241.019531 128.394531 240.777344 128.636719 M 243.257813 131.867188 C 243.03125 131.289063 242.757813 130.859375 242.4375 130.570313 C 242.121094 130.28125 241.78125 130.074219 241.414063 129.957031 C 242.082031 129.789063 242.613281 129.503906 243.007813 129.101563 C 243.402344 128.699219 243.597656 128.136719 243.597656 127.40625 C 243.597656 126.9375 243.515625 126.53125 243.347656 126.191406 C 243.183594 125.851563 242.9375 125.566406 242.609375 125.339844 C 242.285156 125.109375 241.890625 124.945313 241.429688 124.839844 C 240.964844 124.734375 240.429688 124.679688 239.824219 124.679688 L 237.207031 124.679688 C 236.875 124.679688 236.625 124.773438 236.457031 124.964844 C 236.289063 125.152344 236.207031 125.414063 236.207031 125.746094 L 236.207031 133.910156 C 236.207031 134.082031 236.28125 134.195313 236.433594 134.253906 C 236.585938 134.316406 236.898438 134.34375 237.367188 134.34375 C 237.835938 134.34375 238.136719 134.316406 238.265625 134.253906 C 238.394531 134.195313 238.460938 134.082031 238.460938 133.910156 L 238.460938 130.730469 L 239.074219 130.730469 C 239.574219 130.730469 239.949219 130.839844 240.199219 131.058594 C 240.449219 131.277344 240.664063 131.667969 240.847656 132.230469 L 241.324219 133.800781 C 241.355469 133.921875 241.398438 134.015625 241.449219 134.082031 C 241.503906 134.152344 241.578125 134.207031 241.679688 134.242188 C 241.777344 134.28125 241.90625 134.308594 242.0625 134.324219 C 242.222656 134.335938 242.429688 134.34375 242.6875 134.34375 C 242.976563 134.34375 243.203125 134.335938 243.371094 134.324219 C 243.539063 134.308594 243.667969 134.289063 243.757813 134.265625 C 243.847656 134.242188 243.90625 134.207031 243.929688 134.152344 C 243.953125 134.097656 243.964844 134.042969 243.964844 133.980469 C 243.964844 133.890625 243.910156 133.671875 243.804688 133.320313 Z M 181.644531 139.226563 C 181.679688 138.429688 181.804688 137.679688 182.015625 136.972656 C 182.226563 136.269531 182.53125 135.660156 182.929688 135.140625 C 183.328125 134.625 183.828125 134.210938 184.433594 133.90625 C 185.035156 133.601563 185.742188 133.449219 186.558594 133.449219 C 188.171875 133.449219 189.363281 133.960938 190.136719 134.988281 C 190.90625 136.015625 191.265625 137.429688 191.21875 139.226563 Z M 194.90625 132.085938 C 194.042969 131.09375 192.933594 130.316406 191.585938 129.757813 C 190.238281 129.199219 188.609375 128.917969 186.710938 128.917969 C 184.910156 128.917969 183.296875 129.214844 181.859375 129.808594 C 180.429688 130.402344 179.210938 131.261719 178.210938 132.390625 C 177.207031 133.519531 176.445313 134.894531 175.917969 136.515625 C 175.390625 138.136719 175.128906 139.957031 175.128906 141.976563 C 175.128906 144.097656 175.378906 145.949219 175.878906 147.523438 C 176.382813 149.105469 177.140625 150.410156 178.15625 151.445313 C 179.175781 152.480469 180.445313 153.253906 181.964844 153.761719 C 183.480469 154.269531 185.253906 154.527344 187.269531 154.527344 C 188.390625 154.527344 189.441406 154.453125 190.429688 154.308594 C 191.410156 154.164063 192.285156 153.996094 193.050781 153.800781 C 193.8125 153.605469 194.441406 153.40625 194.933594 153.203125 C 195.425781 153 195.726563 152.835938 195.835938 152.71875 C 195.945313 152.597656 196.035156 152.476563 196.105469 152.347656 C 196.171875 152.222656 196.222656 152.066406 196.257813 151.878906 C 196.289063 151.691406 196.316406 151.464844 196.332031 151.203125 C 196.351563 150.941406 196.359375 150.621094 196.359375 150.25 C 196.359375 149.824219 196.347656 149.472656 196.320313 149.191406 C 196.296875 148.910156 196.25 148.695313 196.179688 148.542969 C 196.113281 148.390625 196.027344 148.285156 195.925781 148.226563 C 195.824219 148.167969 195.695313 148.136719 195.546875 148.136719 C 195.289063 148.136719 194.960938 148.21875 194.550781 148.378906 C 194.144531 148.539063 193.632813 148.71875 193.011719 148.910156 C 192.390625 149.105469 191.65625 149.285156 190.808594 149.445313 C 189.960938 149.609375 188.976563 149.6875 187.855469 149.6875 C 186.753906 149.6875 185.808594 149.542969 185.019531 149.257813 C 184.230469 148.96875 183.585938 148.546875 183.085938 147.996094 C 182.582031 147.445313 182.21875 146.773438 181.988281 145.984375 C 181.761719 145.195313 181.644531 144.316406 181.644531 143.351563 L 195.46875 143.351563 C 196.078125 143.351563 196.558594 143.164063 196.90625 142.789063 C 197.253906 142.417969 197.429688 141.839844 197.429688 141.058594 L 197.429688 140.042969 C 197.429688 138.445313 197.222656 136.96875 196.816406 135.613281 C 196.410156 134.253906 195.773438 133.078125 194.90625 132.085938 M 146.746094 130.226563 C 146.710938 130.050781 146.675781 129.910156 146.632813 129.808594 C 146.589844 129.707031 146.519531 129.613281 146.429688 129.527344 C 146.335938 129.441406 146.183594 129.363281 145.980469 129.285156 C 145.777344 129.210938 145.539063 129.144531 145.269531 129.082031 C 144.996094 129.023438 144.734375 128.980469 144.480469 128.957031 C 144.226563 128.929688 143.988281 128.917969 143.765625 128.917969 C 143.292969 128.917969 142.816406 128.980469 142.34375 129.109375 C 141.867188 129.234375 141.390625 129.460938 140.917969 129.78125 C 140.441406 130.105469 139.941406 130.542969 139.414063 131.09375 C 138.886719 131.644531 138.328125 132.34375 137.734375 133.195313 L 137.734375 130.367188 C 137.734375 130.199219 137.691406 130.050781 137.605469 129.921875 C 137.523438 129.796875 137.382813 129.691406 137.1875 129.605469 C 136.992188 129.519531 136.71875 129.457031 136.359375 129.414063 C 136.003906 129.371094 135.554688 129.351563 135.011719 129.351563 C 134.484375 129.351563 134.046875 129.371094 133.699219 129.414063 C 133.351563 129.457031 133.066406 129.519531 132.847656 129.605469 C 132.628906 129.691406 132.472656 129.796875 132.390625 129.921875 C 132.304688 130.050781 132.261719 130.199219 132.261719 130.367188 L 132.261719 153.074219 C 132.261719 153.242188 132.3125 153.394531 132.414063 153.519531 C 132.515625 153.648438 132.691406 153.753906 132.9375 153.839844 C 133.183594 153.921875 133.507813 153.988281 133.917969 154.027344 C 134.324219 154.070313 134.84375 154.09375 135.46875 154.09375 C 136.097656 154.09375 136.613281 154.070313 137.023438 154.027344 C 137.429688 153.988281 137.757813 153.921875 138.003906 153.839844 C 138.246094 153.753906 138.421875 153.648438 138.523438 153.519531 C 138.625 153.394531 138.675781 153.242188 138.675781 153.074219 L 138.675781 138.921875 C 139.152344 138.175781 139.597656 137.546875 140.011719 137.035156 C 140.429688 136.527344 140.828125 136.121094 141.210938 135.816406 C 141.589844 135.511719 141.960938 135.285156 142.316406 135.140625 C 142.675781 134.996094 143.03125 134.925781 143.386719 134.925781 C 143.691406 134.925781 143.972656 134.953125 144.226563 135.015625 C 144.480469 135.074219 144.714844 135.136719 144.925781 135.203125 C 145.136719 135.273438 145.328125 135.335938 145.5 135.394531 C 145.667969 135.453125 145.820313 135.484375 145.957031 135.484375 C 146.128906 135.484375 146.265625 135.441406 146.378906 135.355469 C 146.488281 135.273438 146.574219 135.117188 146.644531 134.898438 C 146.710938 134.679688 146.761719 134.375 146.796875 133.984375 C 146.832031 133.59375 146.847656 133.09375 146.847656 132.480469 C 146.847656 131.867188 146.839844 131.386719 146.820313 131.03125 C 146.804688 130.671875 146.777344 130.40625 146.746094 130.226563 M 155.402344 139.226563 C 155.433594 138.429688 155.558594 137.679688 155.769531 136.972656 C 155.980469 136.269531 156.289063 135.660156 156.6875 135.140625 C 157.085938 134.625 157.585938 134.210938 158.1875 133.90625 C 158.789063 133.601563 159.5 133.449219 160.3125 133.449219 C 161.925781 133.449219 163.117188 133.960938 163.890625 134.988281 C 164.660156 136.015625 165.023438 137.429688 164.972656 139.226563 Z M 168.664063 132.085938 C 167.796875 131.09375 166.691406 130.316406 165.34375 129.757813 C 163.992188 129.199219 162.367188 128.917969 160.46875 128.917969 C 158.667969 128.917969 157.050781 129.214844 155.617188 129.808594 C 154.183594 130.402344 152.964844 131.261719 151.964844 132.390625 C 150.964844 133.519531 150.199219 134.894531 149.675781 136.515625 C 149.148438 138.136719 148.886719 139.957031 148.886719 141.976563 C 148.886719 144.097656 149.136719 145.949219 149.636719 147.523438 C 150.136719 149.105469 150.894531 150.410156 151.914063 151.445313 C 152.929688 152.480469 154.199219 153.253906 155.71875 153.761719 C 157.238281 154.269531 159.007813 154.527344 161.027344 154.527344 C 162.144531 154.527344 163.199219 154.453125 164.183594 154.308594 C 165.167969 154.164063 166.039063 153.996094 166.804688 153.800781 C 167.570313 153.605469 168.195313 153.40625 168.6875 153.203125 C 169.179688 153 169.480469 152.835938 169.59375 152.71875 C 169.703125 152.597656 169.792969 152.476563 169.859375 152.347656 C 169.929688 152.222656 169.976563 152.066406 170.011719 151.878906 C 170.046875 151.691406 170.070313 151.464844 170.089844 151.203125 C 170.105469 150.941406 170.113281 150.621094 170.113281 150.25 C 170.113281 149.824219 170.101563 149.472656 170.074219 149.191406 C 170.050781 148.910156 170.003906 148.695313 169.9375 148.542969 C 169.867188 148.390625 169.78125 148.285156 169.679688 148.226563 C 169.578125 148.167969 169.453125 148.136719 169.300781 148.136719 C 169.046875 148.136719 168.714844 148.21875 168.304688 148.378906 C 167.898438 148.539063 167.386719 148.71875 166.765625 148.910156 C 166.148438 149.105469 165.414063 149.285156 164.5625 149.445313 C 163.714844 149.609375 162.730469 149.6875 161.613281 149.6875 C 160.507813 149.6875 159.5625 149.542969 158.773438 149.257813 C 157.984375 148.96875 157.339844 148.546875 156.839844 147.996094 C 156.339844 147.445313 155.972656 146.773438 155.742188 145.984375 C 155.515625 145.195313 155.402344 144.316406 155.402344 143.351563 L 169.222656 143.351563 C 169.835938 143.351563 170.3125 143.164063 170.660156 142.789063 C 171.011719 142.417969 171.183594 141.839844 171.183594 141.058594 L 171.183594 140.042969 C 171.183594 138.445313 170.980469 136.96875 170.570313 135.613281 C 170.164063 134.253906 169.527344 133.078125 168.664063 132.085938 M 117.96875 125.464844 C 117.664063 126.425781 117.195313 127.273438 116.570313 128.007813 C 115.941406 128.742188 115.148438 129.3125 114.1875 129.726563 C 113.226563 130.140625 112.09375 130.347656 110.785156 130.347656 C 108.359375 130.347656 106.472656 129.667969 105.125 128.308594 C 103.777344 126.945313 103.105469 125.078125 103.105469 122.703125 C 103.105469 121.636719 103.257813 120.617188 103.566406 119.644531 C 103.871094 118.671875 104.339844 117.808594 104.964844 117.0625 C 105.59375 116.316406 106.378906 115.730469 107.324219 115.300781 C 108.273438 114.875 109.386719 114.660156 110.667969 114.660156 C 113.148438 114.660156 115.0625 115.347656 116.410156 116.722656 C 117.757813 118.097656 118.429688 120.011719 118.429688 122.464844 C 118.429688 123.503906 118.277344 124.503906 117.96875 125.464844 M 101.984375 149.375 C 102.304688 148.828125 102.738281 148.253906 103.285156 147.652344 C 103.832031 147.054688 104.53125 146.421875 105.386719 145.753906 L 114.710938 146.074219 C 116.871094 146.128906 118.582031 146.574219 119.851563 147.414063 C 121.117188 148.253906 121.753906 149.449219 121.753906 150.996094 C 121.753906 151.902344 121.570313 152.769531 121.210938 153.597656 C 120.851563 154.421875 120.257813 155.15625 119.429688 155.796875 C 118.601563 156.4375 117.515625 156.949219 116.171875 157.335938 C 114.820313 157.722656 113.148438 157.917969 111.148438 157.917969 C 108 157.917969 105.546875 157.472656 103.785156 156.578125 C 102.023438 155.683594 101.144531 154.367188 101.144531 152.636719 C 101.144531 152.074219 101.203125 151.527344 101.324219 150.996094 C 101.445313 150.460938 101.664063 149.921875 101.984375 149.375 M 127.394531 110.300781 L 116.511719 110.300781 C 115.683594 110.085938 114.796875 109.921875 113.847656 109.800781 C 112.902344 109.679688 111.882813 109.621094 110.785156 109.621094 C 108.761719 109.621094 106.886719 109.921875 105.164063 110.519531 C 103.445313 111.121094 101.96875 111.980469 100.742188 113.101563 C 99.515625 114.222656 98.554688 115.597656 97.863281 117.222656 C 97.167969 118.851563 96.824219 120.691406 96.824219 122.742188 C 96.824219 124.503906 97.0625 126.003906 97.542969 127.246094 C 98.023438 128.488281 98.675781 129.601563 99.503906 130.585938 C 98.515625 131.601563 97.6875 132.75 97.023438 134.027344 C 96.355469 135.308594 96.023438 136.761719 96.023438 138.390625 C 96.023438 139.566406 96.335938 140.660156 96.964844 141.671875 C 97.589844 142.6875 98.554688 143.527344 99.863281 144.191406 C 99.011719 144.859375 98.257813 145.53125 97.601563 146.214844 C 96.949219 146.894531 96.402344 147.609375 95.960938 148.355469 C 95.523438 149.101563 95.195313 149.886719 94.980469 150.714844 C 94.769531 151.542969 94.660156 152.394531 94.660156 153.277344 C 94.660156 154.664063 94.957031 155.949219 95.542969 157.136719 C 96.128906 158.324219 97.074219 159.34375 98.382813 160.199219 C 99.691406 161.050781 101.363281 161.726563 103.40625 162.21875 C 105.445313 162.710938 107.917969 162.960938 110.828125 162.960938 C 113.84375 162.960938 116.457031 162.632813 118.671875 161.980469 C 120.886719 161.324219 122.703125 160.433594 124.132813 159.296875 C 125.558594 158.164063 126.621094 156.851563 127.3125 155.355469 C 128.007813 153.863281 128.351563 152.289063 128.351563 150.636719 C 128.351563 149.0625 128.046875 147.679688 127.433594 146.492188 C 126.820313 145.308594 125.964844 144.308594 124.871094 143.492188 C 123.777344 142.679688 122.484375 142.050781 120.992188 141.613281 C 119.496094 141.171875 117.855469 140.925781 116.070313 140.871094 L 106.664063 140.472656 C 105.226563 140.417969 104.070313 140.085938 103.203125 139.472656 C 102.335938 138.859375 101.902344 138.085938 101.902344 137.148438 C 101.902344 136.351563 102.058594 135.644531 102.363281 135.03125 C 102.671875 134.414063 103.066406 133.867188 103.546875 133.390625 C 104.265625 133.976563 105.285156 134.464844 106.605469 134.847656 C 107.925781 135.234375 109.320313 135.429688 110.785156 135.429688 C 112.867188 135.429688 114.761719 135.136719 116.46875 134.550781 C 118.175781 133.964844 119.652344 133.117188 120.890625 132.007813 C 122.132813 130.902344 123.085938 129.546875 123.753906 127.945313 C 124.417969 126.347656 124.753906 124.503906 124.753906 122.425781 C 124.753906 121.171875 124.566406 119.964844 124.191406 118.804688 C 123.820313 117.644531 123.164063 116.582031 122.230469 115.621094 L 127.394531 115.621094 C 127.792969 115.621094 128.121094 115.414063 128.375 115.003906 C 128.628906 114.589844 128.753906 113.914063 128.753906 112.980469 C 128.753906 112.074219 128.640625 111.402344 128.414063 110.960938 C 128.1875 110.519531 127.847656 110.300781 127.394531 110.300781 M 47.320313 129.578125 C 47.097656 129.492188 46.789063 129.433594 46.390625 129.402344 C 45.992188 129.367188 45.476563 129.351563 44.851563 129.351563 C 44.207031 129.351563 43.683594 129.371094 43.285156 129.414063 C 42.886719 129.457031 42.570313 129.515625 42.332031 129.589844 C 42.09375 129.667969 41.917969 129.777344 41.808594 129.921875 C 41.699219 130.066406 41.617188 130.242188 41.566406 130.445313 L 36.476563 147.117188 L 36.324219 147.753906 L 36.171875 147.117188 L 31.003906 130.445313 C 30.933594 130.242188 30.851563 130.066406 30.746094 129.921875 C 30.644531 129.777344 30.472656 129.667969 30.226563 129.589844 C 29.980469 129.515625 29.644531 129.457031 29.222656 129.414063 C 28.796875 129.371094 28.238281 129.351563 27.542969 129.351563 C 26.914063 129.351563 26.390625 129.367188 25.976563 129.402344 C 25.558594 129.433594 25.234375 129.492188 24.996094 129.578125 C 24.757813 129.664063 24.59375 129.769531 24.5 129.898438 C 24.40625 130.023438 24.359375 130.171875 24.359375 130.34375 C 24.359375 130.445313 24.363281 130.554688 24.371094 130.671875 C 24.378906 130.792969 24.414063 130.988281 24.472656 131.257813 C 24.53125 131.53125 24.613281 131.835938 24.714844 132.175781 L 31.535156 152.71875 C 31.621094 152.988281 31.738281 153.214844 31.882813 153.394531 C 32.027344 153.570313 32.257813 153.710938 32.582031 153.8125 C 32.902344 153.914063 33.347656 153.988281 33.917969 154.027344 C 34.484375 154.070313 35.21875 154.09375 36.117188 154.09375 C 37.035156 154.09375 37.777344 154.074219 38.347656 154.042969 C 38.914063 154.007813 39.363281 153.941406 39.695313 153.839844 C 40.027344 153.734375 40.265625 153.597656 40.40625 153.417969 C 40.554688 153.238281 40.667969 153.007813 40.753906 152.71875 L 47.574219 132.175781 C 47.640625 131.9375 47.699219 131.726563 47.738281 131.539063 C 47.78125 131.351563 47.816406 131.1875 47.84375 131.042969 C 47.867188 130.898438 47.882813 130.769531 47.890625 130.648438 C 47.902344 130.53125 47.90625 130.429688 47.90625 130.34375 C 47.90625 130.171875 47.863281 130.023438 47.777344 129.898438 C 47.695313 129.769531 47.539063 129.664063 47.320313 129.578125 M 22.578125 149.28125 C 22.492188 149.078125 22.386719 148.929688 22.257813 148.835938 C 22.132813 148.742188 21.992188 148.695313 21.839844 148.695313 L 9.976563 148.695313 L 9.976563 139.40625 L 19.929688 139.40625 C 20.082031 139.40625 20.222656 139.363281 20.347656 139.277344 C 20.476563 139.195313 20.582031 139.054688 20.667969 138.859375 C 20.753906 138.664063 20.816406 138.402344 20.859375 138.082031 C 20.902344 137.757813 20.921875 137.351563 20.921875 136.859375 C 20.921875 136.382813 20.902344 135.980469 20.859375 135.648438 C 20.816406 135.320313 20.753906 135.058594 20.667969 134.859375 C 20.582031 134.667969 20.476563 134.523438 20.347656 134.429688 C 20.222656 134.335938 20.082031 134.289063 19.929688 134.289063 L 9.976563 134.289063 L 9.976563 126.242188 L 21.738281 126.242188 C 21.890625 126.242188 22.027344 126.199219 22.144531 126.105469 C 22.261719 126.011719 22.363281 125.863281 22.449219 125.660156 C 22.535156 125.457031 22.597656 125.1875 22.640625 124.855469 C 22.683594 124.527344 22.703125 124.125 22.703125 123.648438 C 22.703125 123.140625 22.683594 122.71875 22.640625 122.386719 C 22.597656 122.058594 22.535156 121.785156 22.449219 121.574219 C 22.363281 121.363281 22.261719 121.210938 22.144531 121.128906 C 22.027344 121.042969 21.890625 121 21.738281 121 L 5.292969 121 C 4.730469 121 4.261719 121.164063 3.878906 121.496094 C 3.5 121.828125 3.308594 122.367188 3.308594 123.113281 L 3.308594 151.828125 C 3.308594 152.574219 3.5 153.113281 3.878906 153.445313 C 4.261719 153.773438 4.730469 153.941406 5.292969 153.941406 L 21.839844 153.941406 C 21.992188 153.941406 22.132813 153.894531 22.257813 153.800781 C 22.386719 153.707031 22.492188 153.558594 22.578125 153.355469 C 22.660156 153.152344 22.726563 152.882813 22.769531 152.554688 C 22.808594 152.222656 22.832031 151.8125 22.832031 151.320313 C 22.832031 150.828125 22.808594 150.414063 22.769531 150.085938 C 22.726563 149.753906 22.660156 149.484375 22.578125 149.28125 M 56.382813 139.226563 C 56.414063 138.429688 56.539063 137.679688 56.75 136.972656 C 56.964844 136.269531 57.269531 135.660156 57.667969 135.140625 C 58.066406 134.625 58.566406 134.210938 59.167969 133.90625 C 59.769531 133.601563 60.480469 133.449219 61.296875 133.449219 C 62.90625 133.449219 64.097656 133.960938 64.871094 134.988281 C 65.644531 136.015625 66.003906 137.429688 65.953125 139.226563 Z M 69.644531 132.085938 C 68.78125 131.09375 67.671875 130.316406 66.324219 129.757813 C 64.972656 129.199219 63.347656 128.917969 61.449219 128.917969 C 59.648438 128.917969 58.03125 129.214844 56.597656 129.808594 C 55.164063 130.402344 53.949219 131.261719 52.945313 132.390625 C 51.945313 133.519531 51.179688 134.894531 50.65625 136.515625 C 50.128906 138.136719 49.863281 139.957031 49.863281 141.976563 C 49.863281 144.097656 50.117188 145.949219 50.617188 147.523438 C 51.117188 149.105469 51.875 150.410156 52.894531 151.445313 C 53.914063 152.480469 55.179688 153.253906 56.699219 153.761719 C 58.21875 154.269531 59.988281 154.527344 62.007813 154.527344 C 63.128906 154.527344 64.179688 154.453125 65.164063 154.308594 C 66.148438 154.164063 67.023438 153.996094 67.785156 153.800781 C 68.550781 153.605469 69.179688 153.40625 69.671875 153.203125 C 70.160156 153 70.464844 152.835938 70.574219 152.71875 C 70.683594 152.597656 70.773438 152.476563 70.839844 152.347656 C 70.90625 152.222656 70.960938 152.066406 70.992188 151.878906 C 71.027344 151.691406 71.054688 151.464844 71.070313 151.203125 C 71.085938 150.941406 71.09375 150.621094 71.09375 150.25 C 71.09375 149.824219 71.082031 149.472656 71.058594 149.191406 C 71.03125 148.910156 70.984375 148.695313 70.917969 148.542969 C 70.847656 148.390625 70.765625 148.285156 70.660156 148.226563 C 70.5625 148.167969 70.433594 148.136719 70.28125 148.136719 C 70.027344 148.136719 69.695313 148.21875 69.289063 148.378906 C 68.882813 148.539063 68.367188 148.71875 67.746094 148.910156 C 67.128906 149.105469 66.394531 149.285156 65.546875 149.445313 C 64.699219 149.609375 63.714844 149.6875 62.59375 149.6875 C 61.488281 149.6875 60.542969 149.542969 59.753906 149.257813 C 58.964844 148.96875 58.320313 148.546875 57.820313 147.996094 C 57.320313 147.445313 56.953125 146.773438 56.726563 145.984375 C 56.496094 145.195313 56.382813 144.316406 56.382813 143.351563 L 70.203125 143.351563 C 70.816406 143.351563 71.292969 143.164063 71.640625 142.789063 C 71.988281 142.417969 72.164063 141.839844 72.164063 141.058594 L 72.164063 140.042969 C 72.164063 138.445313 71.960938 136.96875 71.554688 135.613281 C 71.144531 134.253906 70.511719 133.078125 69.644531 132.085938 M 91.917969 130.226563 C 91.882813 130.050781 91.84375 129.910156 91.804688 129.808594 C 91.761719 129.707031 91.695313 129.613281 91.597656 129.527344 C 91.507813 129.441406 91.359375 129.363281 91.15625 129.285156 C 90.949219 129.210938 90.714844 129.144531 90.441406 129.082031 C 90.171875 129.023438 89.90625 128.980469 89.652344 128.957031 C 89.398438 128.929688 89.160156 128.917969 88.9375 128.917969 C 88.464844 128.917969 87.988281 128.980469 87.515625 129.109375 C 87.039063 129.234375 86.5625 129.460938 86.089844 129.78125 C 85.613281 130.105469 85.113281 130.542969 84.585938 131.09375 C 84.058594 131.644531 83.5 132.34375 82.90625 133.195313 L 82.90625 130.367188 C 82.90625 130.199219 82.863281 130.050781 82.78125 129.921875 C 82.695313 129.796875 82.554688 129.691406 82.359375 129.605469 C 82.164063 129.519531 81.886719 129.457031 81.53125 129.414063 C 81.175781 129.371094 80.726563 129.351563 80.183594 129.351563 C 79.65625 129.351563 79.21875 129.371094 78.871094 129.414063 C 78.523438 129.457031 78.238281 129.519531 78.019531 129.605469 C 77.796875 129.691406 77.644531 129.796875 77.5625 129.921875 C 77.476563 130.050781 77.433594 130.199219 77.433594 130.367188 L 77.433594 153.074219 C 77.433594 153.242188 77.484375 153.394531 77.585938 153.519531 C 77.6875 153.648438 77.863281 153.753906 78.109375 153.839844 C 78.355469 153.921875 78.679688 153.988281 79.089844 154.027344 C 79.496094 154.070313 80.011719 154.09375 80.640625 154.09375 C 81.269531 154.09375 81.785156 154.070313 82.195313 154.027344 C 82.601563 153.988281 82.929688 153.921875 83.175781 153.839844 C 83.421875 153.753906 83.59375 153.648438 83.695313 153.519531 C 83.796875 153.394531 83.847656 153.242188 83.847656 153.074219 L 83.847656 138.921875 C 84.324219 138.175781 84.769531 137.546875 85.183594 137.035156 C 85.601563 136.527344 86 136.121094 86.382813 135.816406 C 86.761719 135.511719 87.132813 135.285156 87.488281 135.140625 C 87.84375 134.996094 88.203125 134.925781 88.558594 134.925781 C 88.863281 134.925781 89.144531 134.953125 89.398438 135.015625 C 89.652344 135.074219 89.886719 135.136719 90.097656 135.203125 C 90.308594 135.273438 90.5 135.335938 90.671875 135.394531 C 90.839844 135.453125 90.992188 135.484375 91.128906 135.484375 C 91.296875 135.484375 91.4375 135.441406 91.550781 135.355469 C 91.660156 135.273438 91.746094 135.117188 91.816406 134.898438 C 91.882813 134.679688 91.933594 134.375 91.96875 133.984375 C 92.003906 133.59375 92.019531 133.09375 92.019531 132.480469 C 92.019531 131.867188 92.011719 131.386719 91.992188 131.03125 C 91.976563 130.671875 91.953125 130.40625 91.917969 130.226563 M 222.539063 131.753906 C 221.886719 130.882813 221.027344 130.191406 219.96875 129.679688 C 218.90625 129.171875 217.605469 128.917969 216.0625 128.917969 C 214.652344 128.917969 213.300781 129.257813 212 129.9375 C 210.703125 130.613281 209.425781 131.632813 208.171875 132.988281 L 208.171875 130.367188 C 208.171875 130.199219 208.128906 130.050781 208.042969 129.921875 C 207.957031 129.796875 207.816406 129.691406 207.621094 129.605469 C 207.429688 129.519531 207.152344 129.457031 206.796875 129.414063 C 206.4375 129.371094 205.988281 129.351563 205.445313 129.351563 C 204.921875 129.351563 204.484375 129.371094 204.136719 129.414063 C 203.785156 129.457031 203.503906 129.519531 203.28125 129.605469 C 203.0625 129.691406 202.910156 129.796875 202.824219 129.921875 C 202.738281 130.050781 202.695313 130.199219 202.695313 130.367188 L 202.695313 153.074219 C 202.695313 153.242188 202.746094 153.394531 202.847656 153.519531 C 202.953125 153.648438 203.125 153.753906 203.371094 153.839844 C 203.617188 153.921875 203.945313 153.988281 204.351563 154.027344 C 204.757813 154.070313 205.277344 154.09375 205.902344 154.09375 C 206.53125 154.09375 207.050781 154.070313 207.457031 154.027344 C 207.863281 153.988281 208.191406 153.921875 208.4375 153.839844 C 208.683594 153.753906 208.855469 153.648438 208.960938 153.519531 C 209.0625 153.394531 209.113281 153.242188 209.113281 153.074219 L 209.113281 137.980469 C 210.011719 136.84375 210.878906 135.976563 211.710938 135.382813 C 212.539063 134.789063 213.363281 134.492188 214.179688 134.492188 C 214.820313 134.492188 215.386719 134.613281 215.871094 134.859375 C 216.355469 135.105469 216.75 135.453125 217.054688 135.90625 C 217.359375 136.355469 217.59375 136.894531 217.753906 137.523438 C 217.914063 138.148438 217.996094 139.015625 217.996094 140.117188 L 217.996094 153.074219 C 217.996094 153.242188 218.046875 153.394531 218.148438 153.519531 C 218.25 153.648438 218.421875 153.753906 218.65625 153.839844 C 218.894531 153.921875 219.222656 153.988281 219.636719 154.027344 C 220.054688 154.070313 220.574219 154.09375 221.203125 154.09375 C 221.8125 154.09375 222.328125 154.070313 222.742188 154.027344 C 223.160156 153.988281 223.484375 153.921875 223.722656 153.839844 C 223.960938 153.753906 224.132813 153.648438 224.230469 153.519531 C 224.335938 153.394531 224.386719 153.242188 224.386719 153.074219 L 224.386719 139.050781 C 224.386719 137.402344 224.242188 135.992188 223.953125 134.824219 C 223.664063 133.652344 223.191406 132.628906 222.539063 131.753906 "/>
</g>
</svg>
